<?xml version="1.0" encoding="UTF-8" standalone="no"?>
<!DOCTYPE svg PUBLIC "-//W3C//DTD SVG 1.1//EN" "http://www.w3.org/Graphics/SVG/1.1/DTD/svg11.dtd">
<svg width="100%" height="100%" viewBox="0 0 170 170" version="1.1" xmlns="http://www.w3.org/2000/svg" xmlns:xlink="http://www.w3.org/1999/xlink" xml:space="preserve" xmlns:serif="http://www.serif.com/" style="fill-rule:evenodd;clip-rule:evenodd;stroke-linejoin:round;stroke-miterlimit:2;">
    <rect id="Artboard5" x="0" y="0" width="170" height="170" style="fill:none;"/>
    <clipPath id="_clip1">
        <rect x="0" y="0" width="170" height="170"/>
    </clipPath>
    <g clip-path="url(#_clip1)">
        <g>
            <path d="M170.541,0.752L43.041,0.752C19.584,0.752 0.541,19.796 0.541,43.252L0.541,170.752L128.041,170.752C151.497,170.752 170.541,151.708 170.541,128.252L170.541,0.752Z" style="fill:#3b3b3b;"/>
            <path d="M75.866,42.979C78.887,41.807 79.874,60.673 79.072,61.475C78.271,62.276 77.644,63.211 77.192,64.28C76.74,65.348 76.513,66.499 76.513,67.732L76.513,130.866L58.819,130.866L58.819,67.732C58.819,66.499 58.593,65.348 58.141,64.28C57.689,63.211 57.062,62.276 56.26,61.475C55.459,60.673 54.524,60.046 53.455,59.594C52.386,59.142 51.236,58.916 50.003,58.916C48.769,58.916 47.619,59.142 46.55,59.594C45.481,60.046 44.546,60.673 43.745,61.475C42.943,62.276 42.316,63.211 41.864,64.28C41.412,65.348 41.186,66.499 41.186,67.732L41.186,130.866L23.492,130.866L23.492,67.732C23.492,64.074 24.18,60.632 25.557,57.405C26.934,54.179 28.825,51.363 31.229,48.959C33.634,46.554 36.449,44.664 39.676,43.287C42.902,41.91 46.344,41.221 50.003,41.221C53.291,41.221 56.456,41.807 59.497,42.979C62.539,44.15 65.272,45.845 67.697,48.065C70.122,45.845 72.845,44.15 75.866,42.979Z" style="fill:#00f5f3;fill-rule:nonzero;"/>
            <g>
                <path d="M123.086,39.343C124.955,38.296 126.013,38.466 127.738,39.662C129.498,40.883 128.39,44.926 126.248,44.944C124.62,44.958 124.904,42.966 123.969,42.723C122.981,42.467 121.647,42.265 120.77,41.601C115.629,37.708 121.217,40.389 123.086,39.343Z" style="fill:#fff021;"/>
                <path d="M131.71,38.96C131.035,36.181 135.73,38.161 134.83,35.765C132.873,30.551 140.008,34.003 140.683,36.782C141.011,38.133 137.07,37.731 135.947,38.22C133.383,39.338 136.37,43.282 135.077,43.484C134.246,43.614 132.384,41.739 131.71,38.96Z" style="fill:#fff021;"/>
                <path d="M128.39,33.62C126.024,31.936 131.138,32.653 131.512,33.578C131.885,34.504 131.437,35.559 130.511,35.933C129.585,36.306 128.53,35.858 128.156,34.932C127.783,34.006 129.204,34.199 128.39,33.62Z" style="fill:#fff021;"/>
                <path d="M119.577,31.686C119.753,31.308 120.319,32.268 120.319,32.686C120.319,33.104 119.994,33.201 119.577,33.201C119.159,33.201 118.427,32.588 118.819,32.444C118.989,32.381 119.37,32.129 119.577,31.686Z" style="fill:#fff021;"/>
                <path d="M124.054,32.427C124.713,32.247 126.203,33.027 125.574,33.294C124.895,33.581 124.506,34.262 124.707,34.813C124.941,35.455 123.368,34.605 123.188,33.947C123.007,33.288 123.396,32.607 124.054,32.427Z" style="fill:#fff021;"/>
                <path d="M114.246,37.871C114.904,37.691 115.129,38.491 115.766,38.738C117.241,39.309 117.103,40.022 114.899,40.257C114.22,40.33 113.56,40.049 113.379,39.391C113.199,38.732 113.587,38.051 114.246,37.871Z" style="fill:#fff021;"/>
            </g>
            <path d="M112.061,107.65C112.041,106.564 112.052,101.066 112.054,98.887C112.065,86.101 111.617,78.015 111.617,70.586C111.617,69.356 111.954,59.919 110.092,56.023C105.522,46.462 94.679,41.388 84.962,41.388C70.148,41.388 58.058,55.099 58.935,68.534C59.249,73.353 63.417,77.01 68.236,76.695C73.055,76.38 76.712,72.213 76.398,67.394C76.116,63.082 80.207,58.888 84.962,58.888C88.255,58.888 91.754,60.329 93.303,63.57C93.889,64.797 93.907,66.722 94.011,68.156C94.104,69.436 94.183,70.554 94.256,71.359L94.217,71.011C94.31,74.877 94.486,84.124 94.486,91.686C94.486,101.93 94.804,106.658 95.189,130.866C112.061,128.056 121.519,124.661 127.987,119.028C135.19,112.755 140.844,106.509 145.488,94.45C150.904,80.387 151.313,67.099 149.343,56.956C148.106,50.588 146.051,41.097 141.121,40.642C140.152,40.553 137.039,42.103 137.9,43.673C140.215,47.894 137.881,54.496 134.436,46.297C133.773,44.719 129.99,41.579 130.195,43.403C130.41,45.316 128.861,48.75 125.98,47.509C122.382,45.958 120.823,50.035 120.823,50.035C126.211,49.76 130.773,54.604 131.842,58.977C132.152,60.244 132.421,61.653 132.51,63.207C132.947,70.839 132.833,78.883 129.233,88.23C126.238,96.008 124.139,99.36 120.039,102.96C116.421,106.135 113.656,107.123 112.061,107.65Z" style="fill:url(#_Linear2);"/>
        </g>
    </g>
    <defs>
        <linearGradient id="_Linear2" x1="0" y1="0" x2="1" y2="0" gradientUnits="userSpaceOnUse" gradientTransform="matrix(66.9064,0,0,60.4982,69.6131,93.9829)"><stop offset="0" style="stop-color:#00f5f3;stop-opacity:1"/><stop offset="1" style="stop-color:#fff021;stop-opacity:1"/></linearGradient>
    </defs>
</svg>
